<?xml version="1.0" encoding="utf-8"?>
<!-- Generator: Adobe Illustrator 21.0.2, SVG Export Plug-In . SVG Version: 6.00 Build 0)  -->
<svg version="1.2" baseProfile="tiny" id="Capa_1" xmlns="http://www.w3.org/2000/svg" xmlns:xlink="http://www.w3.org/1999/xlink"
	 x="0px" y="0px" viewBox="0 0 97 30" xml:space="preserve">
<g>
	<path fill="none" d="M23.8,6.6C18.5,5.3,13.2,6.5,9.7,9.9c-3.6,3.4-4.8,8.5-3.5,13.6c5.3,1.3,10.6,0.1,14.2-3.3
		C23.9,16.8,25.2,11.7,23.8,6.6z"/>
	<path fill="none" d="M24.1,23.8c-3.3,3.2-7.4,5.2-12,6.1h10.5c4.3,0,7.4-3.6,7.4-7.9v-8C28.9,17.8,26.9,21.1,24.1,23.8z"/>
	<path fill="none" d="M18.5,0.1H8c-3.8,0-7.2,2.6-7.9,6.2C0,6.6,0,7.1,0,7.5V16c1.1-3.6,3.1-7,5.9-9.7C9.3,3,13.7,0.9,18.5,0.1z"/>
	<path fill="#41AA35" d="M30,14.1V7.5c0-4.3-3.1-7.5-7.4-7.5h-4.1C13.7,0.9,9.3,3,5.9,6.3C3.1,9,1.1,12.3,0,16v6.1
		c0,0.3,0,0.7,0.1,1c0.5,3.8,4,6.9,7.9,6.9h4.1c4.5-0.9,8.7-2.9,12-6.1C26.9,21.1,28.9,17.8,30,14.1z M6.2,23.5
		C4.8,18.4,6.1,13.4,9.7,9.9c3.6-3.4,8.8-4.7,14.2-3.4c1.4,5.1,0.1,10.2-3.5,13.6C16.8,23.6,11.5,24.9,6.2,23.5z"/>
</g>
<path fill="none" d="M8,0C4.2,0,0.8,2.6,0.1,6.2C0,6.6,0,7,0,7.5v14.6c0,0.3,0,0.7,0.1,1c0.5,3.8,4,6.9,7.9,6.9h14.6
	c4.3,0,7.4-3.6,7.4-7.9V7.5C30,3.2,26.9,0,22.6,0H8z"/>
<g>
	<path fill="none" d="M30,16V7.5c0-4.3-3.1-7.5-7.4-7.5H11.5c4.8,0.8,9.2,2.9,12.6,6.2C26.9,9,28.9,12.3,30,16z"/>
	<path fill="none" d="M0,14.2v7.9c0,0.3,0,0.7,0.1,1c0.5,3.8,4,6.9,7.9,6.9h9.8c-4.5-0.9-8.7-2.9-12-6.1C3.1,21.1,1.1,17.8,0,14.2z"
		/>
	<path fill="none" d="M20.3,9.9c-3.6-3.4-8.8-4.7-14.2-3.4c-1.4,5.1-0.1,10.2,3.5,13.6c3.6,3.4,8.8,4.7,14.2,3.3
		C25.2,18.4,23.9,13.4,20.3,9.9z"/>
	<path fill="#41AA35" d="M30,22.1V16c-1.1-3.7-3.1-7-5.9-9.7C20.7,3,16.3,0.9,11.5,0.1H8c-3.8,0-7.2,2.6-7.9,6.2C0,6.6,0,7.1,0,7.5
		v6.6c1.1,3.6,3.1,7,5.9,9.7c3.3,3.2,7.4,5.2,12,6.1h4.8C26.9,29.9,30,26.4,30,22.1z M9.7,20.2c-3.6-3.4-4.8-8.5-3.5-13.6
		c5.3-1.3,10.6-0.1,14.2,3.4c3.6,3.4,4.8,8.5,3.5,13.6C18.5,24.9,13.2,23.6,9.7,20.2z"/>
</g>
<g>
	<path fill="none" d="M8,0.1L8,0.1c-3.9,0-7.2,2.6-7.9,6.2C0,6.7,0,7.1,0,7.5v14.6c0,0.3,0,0.7,0.1,1C0.6,26.9,4,30,8,30h0
		c-3.8-4.2-5.9-9.5-5.9-15C2.1,9.5,4.2,4.3,8,0.1z"/>
	<path fill="none" d="M15,3c-4.7,2.7-7.5,7.2-7.5,12c0,4.9,2.8,9.3,7.5,12c4.7-2.7,7.5-7.2,7.5-12C22.5,10.2,19.7,5.7,15,3z"/>
	<path fill="none" d="M22.6,0.1H22c3.8,4.2,5.9,9.5,5.9,15c0,5.5-2.1,10.7-5.9,15h0.7c4.3,0,7.4-3.6,7.4-7.9V7.5
		C30,3.3,26.9,0.1,22.6,0.1z"/>
	<path fill="#41AA35" d="M22,0.1H8C4.2,4.3,2.1,9.5,2.1,15c0,5.5,2.1,10.7,5.9,14.9H22c3.8-4.2,5.9-9.4,5.9-14.9
		C27.9,9.5,25.8,4.3,22,0.1z M15,27c-4.7-2.7-7.5-7.2-7.5-12c0-4.8,2.8-9.3,7.5-12c4.7,2.7,7.5,7.2,7.5,12
		C22.5,19.8,19.7,24.3,15,27z"/>
</g>
<g>
	<path fill="#41AA35" d="M7.8,12.2c0.5-0.8,1.2-1.6,1.9-2.3C11.2,8.5,13,7.4,15,6.8c-1.2-0.4-2.6-0.6-3.9-0.7
		C9.4,7.8,8.3,9.9,7.8,12.2z"/>
	<path fill="#41AA35" d="M15,23.4c1.2,0.4,2.5,0.6,3.8,0.7c1.7-1.8,2.8-3.8,3.4-6.1c-0.5,0.8-1.1,1.5-1.8,2.2
		C18.8,21.7,17,22.7,15,23.4z"/>
	<path fill="#41AA35" d="M7.8,18c0.5,2.2,1.7,4.3,3.4,6.1c1.3-0.1,2.6-0.3,3.8-0.7c-2-0.6-3.8-1.7-5.3-3.2C9,19.5,8.3,18.8,7.8,18z"
		/>
	<path fill="#41AA35" d="M15,6.8c2,0.6,3.8,1.7,5.3,3.2c0.7,0.7,1.4,1.5,1.9,2.3c-0.5-2.3-1.7-4.4-3.3-6.1C17.5,6.1,16.2,6.4,15,6.8
		z"/>
	<path fill="#41AA35" d="M27.3,10.1c-0.9-1.4-2-2.7-3.2-3.9c-2.6-2.5-15.6-2.5-18.2,0c-1.2,1.2-2.3,2.5-3.2,3.9
		c-0.4,1.6-0.6,3.2-0.6,4.9c0,1.7,0.2,3.4,0.6,5c0.9,1.4,1.9,2.6,3.1,3.8c2.6,2.5,15.6,2.5,18.2,0c1.2-1.2,2.3-2.4,3.1-3.8
		c0.4-1.6,0.6-3.3,0.6-5C27.9,13.4,27.7,11.7,27.3,10.1z M22.5,15c0,1-0.1,2-0.4,2.9c-0.5,2.2-1.7,4.3-3.3,6.1
		c-1.1,1.2-6.6,1.2-7.7,0c-1.7-1.8-2.8-3.9-3.3-6.1C7.6,17,7.4,16,7.4,15c0,0,0,0,0,0s0,0,0,0c0-0.9,0.1-1.9,0.3-2.8
		c0.5-2.3,1.7-4.4,3.3-6.2c1.1-1.2,6.7-1.2,7.8,0c1.7,1.8,2.8,3.9,3.3,6.2C22.4,13.1,22.5,14.1,22.5,15C22.5,15,22.5,15,22.5,15
		C22.5,15,22.5,15,22.5,15z"/>
</g>
<path fill="#FFFFFF" d="M15,3.5c-5.5,0-10.8,2-15,5.6l0,12.7c4.2,3.6,9.5,5.6,15,5.6c5.5,0,10.8-2,15-5.6V9.1
	C25.8,5.5,20.5,3.5,15,3.5z M3,15.5c1.5-2.4,3.5-4.3,5.8-5.5c-1.8,2.5-2.4,4.8-1.9,7.2c0.4,1.7,1.3,3,2.5,4.1
	C6.9,20.1,4.7,18.1,3,15.5z M20.6,21.3c1.1-1.1,2.1-2.5,2.5-4.1c0.6-2.4-0.1-4.6-1.9-7.2c2.3,1.2,4.3,3.1,5.8,5.5
	C25.3,18.1,23.1,20.1,20.6,21.3z"/>
<path fill="#41AA35" d="M15.1,8.5C15,8.5,15,8.5,15.1,8.5L15.1,8.5C15,8.5,15,8.5,15.1,8.5c-0.1,0-0.1,0-0.1,0
	c-3.5,3.4-5,6.4-4.4,8.9c0.6,2.7,3.3,4.1,4.2,4.5c0,0,0,0,0,0v-4.2l-2.2-2.7l0.4-0.3l1.8,2.2v-4.4H15v0h0.2v6.5l1.8-2.2l0.4,0.3
	l-2.2,2.7V22c1-0.4,3.7-1.8,4.2-4.5C20,14.9,18.5,11.9,15.1,8.5z"/>
<g>
	<path fill="#40A14A" d="M41.3,14.6l0.2,1.3h0.1l0.2-1.3l1.5-4.4h1.6L42,17.8h-1.1l-2.8-7.6h1.7L41.3,14.6z"/>
	<path fill="#40A14A" d="M46.3,10.8c0-0.2,0.1-0.4,0.2-0.5c0.2-0.1,0.4-0.2,0.6-0.2c0.3,0,0.5,0.1,0.7,0.2c0.2,0.1,0.3,0.3,0.3,0.5
		c0,0.2-0.1,0.4-0.3,0.5c-0.2,0.1-0.4,0.2-0.7,0.2c-0.3,0-0.5-0.1-0.6-0.2C46.4,11.1,46.3,11,46.3,10.8z M46.5,12.3h1.4v5.4h-1.4
		V12.3z"/>
	<path fill="#40A14A" d="M52.4,16.2c0-0.1-0.1-0.3-0.2-0.3c-0.1-0.1-0.3-0.2-0.5-0.2c-0.2-0.1-0.4-0.1-0.6-0.2
		c-0.2-0.1-0.4-0.2-0.6-0.3c-0.2-0.1-0.3-0.3-0.5-0.5c-0.1-0.2-0.2-0.5-0.2-0.8c0-0.5,0.2-0.9,0.5-1.2c0.3-0.3,0.8-0.4,1.4-0.4
		c0.4,0,0.8,0,1.1,0.1c0.3,0.1,0.6,0.2,0.8,0.3l-0.3,1c-0.2-0.1-0.4-0.1-0.6-0.2c-0.3-0.1-0.5-0.1-0.8-0.1c-0.4,0-0.6,0.2-0.6,0.5
		c0,0.1,0.1,0.2,0.2,0.3c0.1,0.1,0.3,0.2,0.5,0.2c0.2,0.1,0.4,0.1,0.6,0.2c0.2,0.1,0.4,0.2,0.6,0.3c0.2,0.1,0.3,0.3,0.5,0.5
		c0.1,0.2,0.2,0.5,0.2,0.8c0,0.5-0.2,1-0.5,1.3c-0.4,0.3-0.9,0.5-1.6,0.5c-0.4,0-0.7,0-1.1-0.1s-0.6-0.2-0.8-0.3l0.4-1.1
		c0.2,0.1,0.4,0.2,0.7,0.3c0.3,0.1,0.6,0.1,0.8,0.1c0.2,0,0.4,0,0.5-0.1C52.3,16.5,52.4,16.4,52.4,16.2z"/>
	<path fill="#40A14A" d="M57,12.3v3.1c0,0.4,0.1,0.8,0.2,1c0.1,0.2,0.3,0.3,0.6,0.3c0.3,0,0.5-0.1,0.7-0.2c0.2-0.2,0.3-0.4,0.4-0.6
		v-3.5h1.4v3.8c0,0.3,0,0.6,0,0.9c0,0.3,0.1,0.5,0.1,0.8h-1.1l-0.2-0.8h0c-0.2,0.3-0.4,0.5-0.7,0.7c-0.3,0.2-0.6,0.3-1.1,0.3
		c-0.3,0-0.5,0-0.7-0.1c-0.2-0.1-0.4-0.2-0.5-0.4c-0.1-0.2-0.3-0.4-0.3-0.7c-0.1-0.3-0.1-0.6-0.1-1.1v-3.4H57z"/>
	<path fill="#40A14A" d="M62.4,12.6c0.3-0.1,0.6-0.2,1-0.3c0.4-0.1,0.8-0.1,1.2-0.1c0.4,0,0.7,0,0.9,0.1c0.3,0.1,0.5,0.2,0.6,0.4
		c0.1,0.2,0.3,0.4,0.3,0.6c0.1,0.2,0.1,0.5,0.1,0.8c0,0.3,0,0.6,0,1c0,0.3,0,0.6,0,0.9c0,0.3,0,0.6,0,0.9c0,0.3,0.1,0.6,0.2,0.8
		h-1.1L65.3,17h-0.1c-0.1,0.2-0.3,0.4-0.6,0.6c-0.3,0.2-0.6,0.2-1,0.2c-0.3,0-0.5,0-0.7-0.1c-0.2-0.1-0.4-0.2-0.5-0.3
		c-0.1-0.1-0.3-0.3-0.3-0.5c-0.1-0.2-0.1-0.4-0.1-0.6c0-0.3,0.1-0.6,0.2-0.8c0.1-0.2,0.4-0.4,0.6-0.6c0.3-0.1,0.6-0.2,1-0.3
		c0.4-0.1,0.8-0.1,1.3,0c0.1-0.4,0-0.7-0.1-0.9c-0.1-0.2-0.4-0.3-0.7-0.3c-0.3,0-0.6,0-0.9,0.1c-0.3,0.1-0.6,0.1-0.8,0.2L62.4,12.6z
		 M64.1,16.6c0.3,0,0.5-0.1,0.7-0.2c0.2-0.1,0.3-0.3,0.4-0.4v-0.7c-0.2,0-0.4,0-0.6,0c-0.2,0-0.4,0-0.5,0.1
		c-0.2,0.1-0.3,0.1-0.4,0.2c-0.1,0.1-0.1,0.2-0.1,0.4c0,0.2,0.1,0.4,0.2,0.5C63.8,16.6,63.9,16.6,64.1,16.6z"/>
	<path fill="#40A14A" d="M70.1,15.9c0,0.3,0,0.4,0.1,0.6c0.1,0.1,0.2,0.2,0.3,0.2c0.1,0,0.2,0,0.3,0c0.1,0,0.2,0,0.3-0.1l0.2,1.1
		c-0.1,0.1-0.3,0.1-0.5,0.2c-0.2,0.1-0.5,0.1-0.7,0.1c-0.4,0-0.7-0.1-0.9-0.3c-0.2-0.2-0.3-0.5-0.3-0.9v-6.5h1.4V15.9z"/>
	<path fill="#40A14A" d="M76.9,16h-2.3L74,17.7h-1.5l2.7-7.6h1.1l2.7,7.6h-1.6L76.9,16z M75,14.8h1.6L76,13.1L75.8,12h-0.1l-0.2,1.2
		L75,14.8z"/>
	<path fill="#40A14A" d="M85.2,17.7c0,0.8-0.2,1.4-0.6,1.7c-0.4,0.4-1,0.6-1.8,0.6c-0.5,0-0.9,0-1.2-0.1c-0.3-0.1-0.5-0.1-0.7-0.2
		l0.3-1.1c0.2,0.1,0.4,0.1,0.6,0.2c0.2,0.1,0.5,0.1,0.8,0.1c0.5,0,0.8-0.1,1-0.3c0.2-0.2,0.3-0.5,0.3-0.9v-0.3h0
		c-0.3,0.3-0.7,0.5-1.3,0.5c-0.7,0-1.2-0.2-1.6-0.7c-0.3-0.4-0.5-1.1-0.5-2c0-1,0.2-1.7,0.7-2.2c0.5-0.5,1.1-0.7,2-0.7
		c0.5,0,0.9,0,1.2,0.1c0.4,0.1,0.7,0.1,0.9,0.2V17.7z M82.8,16.7c0.3,0,0.5-0.1,0.6-0.2c0.1-0.1,0.3-0.3,0.3-0.6v-2.4
		c-0.2-0.1-0.5-0.1-0.8-0.1c-0.4,0-0.6,0.1-0.8,0.4c-0.2,0.3-0.3,0.7-0.3,1.3c0,0.5,0.1,0.9,0.3,1.2C82.2,16.5,82.5,16.7,82.8,16.7z
		"/>
	<path fill="#40A14A" d="M90.3,13.6c-0.2-0.1-0.4-0.1-0.6-0.1c-0.3,0-0.5,0.1-0.6,0.2c-0.2,0.1-0.3,0.3-0.3,0.5v3.5h-1.4v-5.4h1.1
		l0.2,0.7h0c0.1-0.3,0.3-0.5,0.5-0.6c0.2-0.1,0.5-0.2,0.7-0.2c0.2,0,0.4,0,0.6,0.1L90.3,13.6z"/>
	<path fill="#40A14A" d="M91.8,15c0-0.9,0.2-1.6,0.7-2.1c0.4-0.5,1.1-0.7,1.9-0.7c0.4,0,0.8,0.1,1.1,0.2c0.3,0.1,0.6,0.3,0.8,0.6
		c0.2,0.2,0.4,0.6,0.5,0.9c0.1,0.4,0.2,0.7,0.2,1.2c0,0.9-0.2,1.6-0.7,2.1c-0.4,0.5-1.1,0.7-1.9,0.7c-0.4,0-0.8-0.1-1.1-0.2
		c-0.3-0.1-0.6-0.3-0.8-0.6c-0.2-0.2-0.4-0.6-0.5-0.9C91.8,15.8,91.8,15.4,91.8,15z M93.2,15c0,0.2,0,0.5,0.1,0.7
		c0,0.2,0.1,0.4,0.2,0.5c0.1,0.2,0.2,0.3,0.3,0.4c0.1,0.1,0.3,0.1,0.5,0.1c0.4,0,0.6-0.1,0.8-0.4c0.2-0.3,0.3-0.7,0.3-1.3
		c0-0.5-0.1-0.9-0.2-1.2c-0.2-0.3-0.4-0.5-0.8-0.5c-0.3,0-0.6,0.1-0.8,0.4C93.3,14,93.2,14.4,93.2,15z"/>
</g>
<line fill="none" stroke="#41AA35" stroke-width="0.25" stroke-miterlimit="10" x1="34" y1="28.5" x2="34" y2="1.5"/>
</svg>
