<?xml version="1.0" encoding="utf-8"?>
<!-- Generator: Adobe Illustrator 21.0.2, SVG Export Plug-In . SVG Version: 6.00 Build 0)  -->
<svg version="1.1" id="Capa_1" xmlns="http://www.w3.org/2000/svg" xmlns:xlink="http://www.w3.org/1999/xlink" x="0px" y="0px"
	 viewBox="0 0 1024 1024" style="enable-background:new 0 0 1024 1024;" xml:space="preserve">
<style type="text/css">
	.st0{fill:#40A14A;}
	.st1{font-family:'PTSans-Bold';}
	.st2{font-size:175.7002px;}
	.st3{letter-spacing:18;}
	.st4{fill:#024012;}
	.st5{fill:#0C6624;}
	.st6{fill:#3EA156;}
	.st7{fill:#43A047;}
</style>
<g>
	<text transform="matrix(1 0 0 1 23.8647 774.3135)" class="st0 st1 st2 st3">VisualAgro</text>
	<g>
		<g>
			<path class="st4" d="M156,381.9c0,0,6.2-9.5,13.2-20.3c8.3-12.8,19.3-28.1,28-38.5c23.5-28.2,48.2-50.5,48.2-50.5
				s6.1,48.7,9.4,64.6c2.4,11.4,11.7,44.6,11.7,44.6s-12.5,42.9-15.3,57.6c-2.4,12.8-5.9,51.7-5.9,51.7s-16-14.1-32.9-32.9
				c-13-14.4-26.8-33.1-32.9-41.1C172.3,407.7,156,381.9,156,381.9z"/>
			<path class="st5" d="M337,209.2c0,0-13.7,31.5-17.6,42.3c-4.1,11.3-14.1,45.8-14.1,45.8s-18.4,32.2-23.5,43.5
				c-4.5,10-15.3,41.1-15.3,41.1s-11.1-39.4-13.7-52.8c-2.7-14-7.5-56.5-7.5-56.5s28-23.8,37.6-30.5
				C296.1,232.7,337,209.2,337,209.2z"/>
			<path class="st5" d="M337,554.7c0,0-13.7-31.5-17.6-42.3c-4.1-11.3-9.4-32.4-14.1-43.5c-4.8-11.4-18.4-34.6-23.5-45.8
				c-4.5-10-15.3-41.1-15.3-41.1s-12.2,39.4-14.8,52.8c-2.7,14-6.3,56.5-6.3,56.5s28,23.8,37.6,30.5
				C296.1,531.1,337,554.7,337,554.7z"/>
			<path class="st6" d="M305.2,297.3c0,0-9.4,59.5-9.4,81.1c0,21.9,9.4,90.5,9.4,90.5s-18.3-34-23.5-45.8
				c-4.4-10-15.3-41.1-15.3-41.1s12-33.8,17-44.6C288.2,326.7,305.2,297.3,305.2,297.3z"/>
			<path class="st6" d="M337,209.2c0,0,34.2-15.8,45.8-20c10.4-3.7,42.3-11.7,42.3-11.7s-48.1,35.4-62.3,49.3
				c-16.2,16-57.6,70.5-57.6,70.5s10-34.6,14.1-45.8C323.2,240.7,337,209.2,337,209.2z"/>
			<path class="st6" d="M337,554.7c0,0,34.2,15.8,45.8,20c10.4,3.7,42.3,11.7,42.3,11.7S377,551,362.8,537
				c-16.2-16-57.6-68.1-57.6-68.1s10,32.2,14.1,43.5C323.2,523.1,337,554.7,337,554.7z"/>
		</g>
		<path class="st7" d="M508.2,204.6c-0.2,0-0.3,0-0.5,0v0c-0.5,0-1,0-1.5,0c-0.2,0-0.4,0-0.6,0C416,291.4,377.7,368.6,391.7,434.1
			c14.7,68.8,84.6,105.1,109,115.8c0.3,0,0.6,0,0.9,0V441.6l-55.2-68.2l9.8-7.9l45.5,56.1v-113h6.1v0h6v167.6l45.5-56.1l9.8,7.9
			l-55.2,68.2v53.5c25-11.1,93.9-47.4,108.4-115.6C636.1,368.6,597.7,291.4,508.2,204.6z"/>
		<g>
			<path class="st4" d="M865.7,379.6c0,0-6.2,9.5-13.2,20.3c-8.3,12.8-19.3,28.1-28,38.5c-23.5,28.2-48.2,50.5-48.2,50.5
				s-6.1-48.7-9.4-64.6c-2.4-11.4-11.7-44.6-11.7-44.6s12.5-42.9,15.3-57.6c2.4-12.8,5.9-51.7,5.9-51.7s16,14.1,32.9,32.9
				c13,14.4,26.8,33.1,32.9,41.1C849.4,353.8,865.7,379.6,865.7,379.6z"/>
			<path class="st5" d="M684.8,552.3c0,0,13.7-31.5,17.6-42.3c4.1-11.3,14.1-45.8,14.1-45.8s18.4-32.2,23.5-43.5
				c4.5-10,15.3-41.1,15.3-41.1s11.1,39.4,13.7,52.8c2.7,14,7.5,56.5,7.5,56.5s-28,23.8-37.6,30.5
				C725.6,528.8,684.8,552.3,684.8,552.3z"/>
			<path class="st5" d="M684.8,206.9c0,0,13.7,31.5,17.6,42.3c4.1,11.3,9.4,32.4,14.1,43.5c4.8,11.4,18.4,34.6,23.5,45.8
				c4.5,10,15.3,41.1,15.3,41.1s12.2-39.4,14.8-52.8c2.7-14,6.3-56.5,6.3-56.5s-28-23.8-37.6-30.5
				C725.6,230.4,684.8,206.9,684.8,206.9z"/>
			<path class="st6" d="M716.5,464.2c0,0,9.4-59.5,9.4-81.1c0-21.9-9.4-90.5-9.4-90.5s18.3,34,23.5,45.8c4.4,10,15.3,41.1,15.3,41.1
				s-12,33.8-17,44.6C733.5,434.8,716.5,464.2,716.5,464.2z"/>
			<path class="st6" d="M684.8,552.3c0,0-34.2,15.8-45.8,20c-10.4,3.7-42.3,11.7-42.3,11.7s48.1-35.4,62.3-49.3
				c16.2-16,57.6-70.5,57.6-70.5s-10,34.6-14.1,45.8C698.5,520.8,684.8,552.3,684.8,552.3z"/>
			<path class="st6" d="M684.8,206.9c0,0-34.2-15.8-45.8-20c-10.4-3.7-42.3-11.7-42.3-11.7s48.1,35.4,62.3,49.3
				c16.2,16,57.6,68.1,57.6,68.1s-10-32.2-14.1-43.5C698.5,238.4,684.8,206.9,684.8,206.9z"/>
		</g>
	</g>
</g>
</svg>
